<svg width="19" height="16" viewBox="0 0 19 16" fill="none" xmlns="http://www.w3.org/2000/svg">
<path id="Vector" d="M9.33333 1.33333C7.91667 1.33333 6.59201 1.57465 5.35937 2.05729C4.12674 2.53993 3.14757 3.19097 2.42187 4.01042C1.69618 4.82986 1.33333 5.71528 1.33333 6.66667C1.33333 7.44444 1.5816 8.18576 2.07812 8.89062C2.57465 9.59549 3.27431 10.2049 4.17708 10.7188L5.08333 11.2396L4.80208 12.2396C4.63542 12.8715 4.39236 13.4688 4.07292 14.0312C5.12847 13.5938 6.08333 13 6.9375 12.25L7.38542 11.8542L7.97917 11.9167C8.45833 11.9722 8.90972 12 9.33333 12C10.75 12 12.0747 11.7587 13.3073 11.276C14.5399 10.7934 15.5191 10.1424 16.2448 9.32292C16.9705 8.50347 17.3333 7.61806 17.3333 6.66667C17.3333 5.71528 16.9705 4.82986 16.2448 4.01042C15.5191 3.19097 14.5399 2.53993 13.3073 2.05729C12.0747 1.57465 10.75 1.33333 9.33333 1.33333ZM18.6667 6.66667C18.6667 7.875 18.25 8.99132 17.4167 10.0156C16.5833 11.0399 15.4514 11.849 14.0208 12.4427C12.5903 13.0365 11.0278 13.3333 9.33333 13.3333C8.84722 13.3333 8.34375 13.3056 7.82292 13.25C6.44792 14.4653 4.85069 15.3056 3.03125 15.7708C2.69097 15.8681 2.29514 15.9444 1.84375 16H1.79167C1.6875 16 1.59375 15.9635 1.51042 15.8906C1.42708 15.8177 1.37153 15.7222 1.34375 15.6042V15.5938C1.32292 15.566 1.32118 15.5243 1.33854 15.4688C1.3559 15.4132 1.36285 15.3785 1.35937 15.3646C1.3559 15.3507 1.37153 15.3177 1.40625 15.2656L1.46875 15.1719L1.54167 15.0833L1.625 14.9896C1.67361 14.934 1.78125 14.8142 1.94792 14.6302C2.11458 14.4462 2.23437 14.3142 2.30729 14.2344C2.38021 14.1545 2.48785 14.0174 2.63021 13.8229C2.77257 13.6285 2.88542 13.4514 2.96875 13.2917C3.05208 13.1319 3.14583 12.9271 3.25 12.6771C3.35417 12.4271 3.44444 12.1632 3.52083 11.8854C2.43056 11.2674 1.57118 10.5035 0.942708 9.59375C0.314236 8.68403 0 7.70833 0 6.66667C0 5.45833 0.416667 4.34201 1.25 3.31771C2.08333 2.2934 3.21528 1.48438 4.64583 0.890625C6.07639 0.296875 7.63889 0 9.33333 0C11.0278 0 12.5903 0.296875 14.0208 0.890625C15.4514 1.48438 16.5833 2.2934 17.4167 3.31771C18.25 4.34201 18.6667 5.45833 18.6667 6.66667Z" fill="#2F2F2F"/>
</svg>
