<svg width="21" height="20" viewBox="0 0 21 20" fill="none" xmlns="http://www.w3.org/2000/svg">
<path id="Vector" d="M1.58045 0.108405L20.1808 9.00428C20.3688 9.09405 20.5276 9.23521 20.6387 9.41143C20.7499 9.58765 20.8088 9.79173 20.8088 10.0001C20.8088 10.2084 20.7499 10.4125 20.6387 10.5887C20.5276 10.7649 20.3688 10.9061 20.1808 10.9959L1.58045 19.8917C1.38977 19.9831 1.17687 20.0177 0.967071 19.9915C0.757274 19.9653 0.559418 19.8794 0.397043 19.744C0.234668 19.6086 0.11461 19.4294 0.0511529 19.2277C-0.0123038 19.026 -0.0164874 18.8104 0.0390999 18.6064L1.90002 11.7842C1.9228 11.7006 1.96969 11.6255 2.03484 11.5684C2.09998 11.5112 2.18051 11.4745 2.26638 11.4628L11.2797 10.2384C11.3173 10.2331 11.353 10.2181 11.3832 10.1949C11.4133 10.1716 11.437 10.141 11.4518 10.106L11.4677 10.0513C11.4747 10.002 11.4648 9.95179 11.4396 9.90884C11.4144 9.86589 11.3755 9.83271 11.3291 9.81468L11.2805 9.80144L2.27609 8.57701C2.19038 8.56516 2.11005 8.52839 2.04507 8.47126C1.98009 8.41413 1.93333 8.33916 1.91061 8.25567L0.0390999 1.39463C-0.0167125 1.19059 -0.0126992 0.974798 0.0506618 0.772969C0.114023 0.571141 0.234061 0.391778 0.39648 0.256243C0.558898 0.120708 0.756851 0.0347146 0.966761 0.00850392C1.17667 -0.0177068 1.38969 0.0169704 1.58045 0.108405Z" fill="#FF7674"/>
</svg>
